<svg xmlns="http://www.w3.org/2000/svg" viewBox="0 0 216 216"><defs><style>.cls-1{fill:#00acee;}.cls-2{fill:#fff;stroke:#00acee;stroke-miterlimit:10;stroke-width:2px;}</style></defs><title>Asset 2</title><g id="Layer_2" data-name="Layer 2"><g id="Layer_1-2" data-name="Layer 1"><circle class="cls-1" cx="108" cy="108" r="108"/><path class="cls-2" d="M107.61,171.14c-9.11-.07-18.18-.5-27.1-2.56A24.25,24.25,0,0,1,73.44,166a1.9,1.9,0,0,1-1.17-1.71c0-10.49.44-20.94,3.8-31,1.64-4.9,4-9.4,8.08-12.75a16.52,16.52,0,0,1,8.3-3.55,2.94,2.94,0,0,1,2.06.53q13.23,8.1,26.49,0a3.39,3.39,0,0,1,2.52-.47c6.05,1,10.08,4.7,13,9.81,3.46,6,4.86,12.74,5.73,19.55a148.93,148.93,0,0,1,.93,16.68,3.42,3.42,0,0,1-2.32,3.62,46,46,0,0,1-12.51,3.12A148.32,148.32,0,0,1,107.61,171.14Z"/><path class="cls-2" d="M151.89,138.66c-1.68,0-3.37-.08-5,0-1.33.08-1.94-.35-2.25-1.72a41.24,41.24,0,0,0-6-14.46,21.48,21.48,0,0,0-11.42-8.75c-1-.32-1.09-.61-.46-1.47,5.91-8,6.78-16.53,2.63-25.54-.49-1.06-.15-1.36.77-1.66a7.51,7.51,0,0,1,6.68.57c8.32,4.77,16.76,4.46,25-.52a4.36,4.36,0,0,1,3.41-.6c6.64,1.38,10.64,5.84,13.44,11.61,3.15,6.48,4.36,13.47,5.05,20.56.46,4.66.52,9.33.61,14a3.41,3.41,0,0,1-2.4,3.57,45.58,45.58,0,0,1-12.19,3.06A136.23,136.23,0,0,1,151.89,138.66Z"/><path class="cls-2" d="M63.31,138.66c-8.21-.23-16.54-.74-24.69-2.87a21.9,21.9,0,0,1-5.7-2.25,1.89,1.89,0,0,1-1.15-1.71c0-10.07.35-20.1,3.31-29.82C36.65,96.86,38.9,92.08,43,88.4a16.68,16.68,0,0,1,8.43-4,3.62,3.62,0,0,1,2.68.57c8.76,5.39,17.56,5.36,26.35.07,1.33-.8,4.65-.67,5.83.25.75.58.09,1-.12,1.49a24.37,24.37,0,0,0-1.61,16.91,22.58,22.58,0,0,0,4.27,8.55c.47.6.85,1.08-.29,1.43-6.58,2-10.81,6.63-13.87,12.54a45.56,45.56,0,0,0-3.9,11,1.62,1.62,0,0,1-1.94,1.5C67.05,138.61,65.26,138.66,63.31,138.66Z"/><path class="cls-2" d="M127.79,97.44a20,20,0,1,1-20.07-20.06A20,20,0,0,1,127.79,97.44Z"/><path class="cls-2" d="M128.73,64.89a20,20,0,1,1,20.09,20.05A20.09,20.09,0,0,1,128.73,64.89Z"/><path class="cls-2" d="M47.29,64.92a20,20,0,1,1,20,20A20.14,20.14,0,0,1,47.29,64.92Z"/></g></g></svg>